# xmcd
#
# Track frame offsets: 
#        150
#        22545
#        46808
#        68303
#        87593
#        102885
#        129235
#        154743
#        178665
#        203828
#        224463
#        253670
#        261303
#
# Disc length: 3759 seconds
#
# Revision: 11
# Processed by: cddbd v1.5.2PL0 Copyright (c) Steve Scherf et al.
# Submitted via: ExactAudioCopy v1.0b1
#
DISCID=a70ead0d
DTITLE=TRF - UNITE
DYEAR=1998
DGENRE=Pop
TTITLE0=Realize
TTITLE1=frisky a GO-GO! Sunset Boulevard Mix
TTITLE2=Frame
TTITLE3=in the move to be
TTITLE4=darkscape
TTITLE5=EARL GREY
TTITLE6=TRY OR CRY
TTITLE7=Meltin' you
TTITLE8=Future Shock
TTITLE9=Friends
TTITLE10=It's My TIME
TTITLE11=Get up! Stand up! Unity!
TTITLE12=Unite! The Night!
EXTD=YEAR: 1998
EXTT0=
EXTT1=
EXTT2=
EXTT3=
EXTT4=
EXTT5=
EXTT6=
EXTT7=
EXTT8=
EXTT9=
EXTT10=
EXTT11=
EXTT12=
PLAYORDER=
